<svg width="80" height="80" viewBox="0 0 80 80" fill="none" xmlns="http://www.w3.org/2000/svg">
<path d="M18.8516 34.0068L18.8516 24C18.8516 16.6822 24.7838 10.75 32.1016 10.75L47.5879 10.75C54.9057 10.75 60.8379 16.6822 60.8379 24L60.8379 34.0068L18.8516 34.0068Z" stroke="#385A92" stroke-width="3.5"/>
<path d="M18.8857 42.8911L61.6968 42.8911" stroke="#385A92" stroke-width="3.5" stroke-linecap="round"/>
<path d="M39.8454 75C42.3292 75 44.7112 74.0307 46.4674 72.3052C48.2237 70.5798 49.2104 68.2396 49.2104 65.7994C49.2104 63.1706 47.8725 60.6733 45.1968 58.5703C42.5211 56.4673 40.5143 53.3128 39.8454 50.0269C39.1765 53.3128 37.1697 56.4673 34.494 58.5703C31.8183 60.6733 30.4805 63.1706 30.4805 65.7994C30.4805 68.2396 31.4671 70.5798 33.2234 72.3052C34.9797 74.0307 37.3617 75 39.8454 75Z" stroke="#385A92" stroke-width="3.5" stroke-linecap="round" stroke-linejoin="round"/>
</svg>
