<svg width="80" height="80" viewBox="0 0 80 80" fill="none" xmlns="http://www.w3.org/2000/svg">
<path d="M40 34C42.3869 34 44.6761 33.0296 46.364 31.3023C48.0518 29.575 49 27.2323 49 24.7895C49 22.1579 47.7143 19.6579 45.1429 17.5526C42.5714 15.4474 40.6429 12.2895 40 9C39.3571 12.2895 37.4286 15.4474 34.8571 17.5526C32.2857 19.6579 31 22.1579 31 24.7895C31 27.2323 31.9482 29.575 33.636 31.3023C35.3239 33.0296 37.6131 34 40 34Z" stroke="#385A92" stroke-width="3.5" stroke-linecap="round" stroke-linejoin="round"/>
<path d="M65.1786 45H69C72.3137 45 75 47.6863 75 51V55C75 58.3137 72.3137 61 69 61H64" stroke="#385A92" stroke-width="3.5" stroke-linecap="round"/>
<path d="M64.6914 41.7202V53.9995C64.6914 65.1833 55.6252 74.2495 44.4414 74.2495H35.9414C24.7576 74.2495 15.6914 65.1833 15.6914 53.9995V41.7202H64.6914Z" stroke="#385A92" stroke-width="3.5"/>
</svg>
