<svg width="80" height="80" viewBox="0 0 80 80" fill="none" xmlns="http://www.w3.org/2000/svg">
<path d="M40.1041 74C46.301 74 52.2442 71.5383 56.6262 67.1563C61.0081 62.7744 63.4698 56.8312 63.4698 50.6342C63.4698 43.9583 60.1319 37.6162 53.4559 32.2754C46.78 26.9347 41.773 18.9235 40.1041 10.5786C38.4351 18.9235 33.4281 26.9347 26.7522 32.2754C20.0762 37.6162 16.7383 43.9583 16.7383 50.6342C16.7383 56.8312 19.2 62.7744 23.582 67.1563C27.9639 71.5383 33.9071 74 40.1041 74Z" stroke="#385A92" stroke-width="4" stroke-linecap="round" stroke-linejoin="round"/>
<path d="M26.6699 50.6157C28.4971 57.7093 30.781 64.3596 43.1142 65.6896" stroke="#385A92" stroke-width="4" stroke-linecap="round"/>
</svg>
