<svg width="80" height="80" viewBox="0 0 80 80" fill="none" xmlns="http://www.w3.org/2000/svg">
<path fill-rule="evenodd" clip-rule="evenodd" d="M47.0933 12.5265V12.8858C48.0499 12.5476 49.0736 12.4439 50.0785 12.5834C51.0834 12.723 52.0402 13.1016 52.8684 13.6876C53.6966 14.2736 54.3722 15.0497 54.8382 15.9509C55.3042 16.8521 55.5472 17.852 55.5467 18.8665V21.3391C56.5032 21.0009 57.5269 20.8973 58.5318 21.0368C59.5368 21.1763 60.4935 21.5549 61.3218 22.1409C62.15 22.7269 62.8255 23.5031 63.2915 24.4043C63.7576 25.3054 64.0005 26.3053 64 27.3199V51.6761C64 63.9017 54.0885 73.8132 41.8628 73.8132C34.1766 73.8132 27.0399 69.8254 23.0119 63.2783L10.8898 43.582C10.0449 42.2016 9.75869 40.5507 10.0897 38.9664C10.4207 37.3822 11.3438 35.984 12.6708 35.0573C13.9977 34.1306 15.6282 33.7453 17.2296 33.9801C18.8309 34.2149 20.2823 35.052 21.2874 36.3206L25.96 42.2464V18.8665C25.9594 17.852 26.2024 16.8521 26.6684 15.9509C27.1345 15.0497 27.81 14.2736 28.6382 13.6876C29.4664 13.1016 30.4232 12.723 31.4281 12.5834C32.433 12.4439 33.4568 12.5476 34.4133 12.8858V12.5265C34.4133 10.8451 35.0813 9.23245 36.2703 8.04347C37.4592 6.85449 39.0718 6.18652 40.7533 6.18652C42.4348 6.18652 44.0474 6.85449 45.2364 8.04347C46.4254 9.23245 47.0933 10.8451 47.0933 12.5265ZM38.64 12.5265C38.64 11.966 38.8626 11.4285 39.259 11.0322C39.6553 10.6358 40.1928 10.4132 40.7533 10.4132C41.3138 10.4132 41.8513 10.6358 42.2477 11.0322C42.644 11.4285 42.8666 11.966 42.8666 12.5265V37.8866H47.0933V18.8665C47.0933 18.306 47.316 17.7685 47.7123 17.3722C48.1086 16.9759 48.6462 16.7532 49.2067 16.7532C49.7671 16.7532 50.3047 16.9759 50.701 17.3722C51.0973 17.7685 51.32 18.306 51.32 18.8665V42.1132H55.5467V27.3199C55.5467 26.7594 55.7693 26.2218 56.1656 25.8255C56.562 25.4292 57.0995 25.2065 57.66 25.2065C58.2205 25.2065 58.758 25.4292 59.1543 25.8255C59.5507 26.2218 59.7733 26.7594 59.7733 27.3199V51.6761C59.7729 55.5753 58.4999 59.3679 56.1478 62.4778C53.7957 65.5878 50.493 67.8452 46.7411 68.9072C42.9893 69.9693 38.9934 69.7779 35.3602 68.3623C31.727 66.9466 28.6551 64.384 26.6109 61.0635L14.4888 41.3672C14.2037 40.9051 14.1062 40.3514 14.2164 39.8198C14.3265 39.2881 14.6359 38.8187 15.0811 38.5078C15.5262 38.197 16.0735 38.0682 16.6106 38.148C17.1476 38.2278 17.6338 38.51 17.9695 38.9369L22.6399 44.8627C25.1231 48.0115 30.1866 46.2575 30.1866 42.2464V18.8665C30.1866 18.306 30.4093 17.7685 30.8056 17.3722C31.2019 16.9759 31.7395 16.7532 32.3 16.7532C32.8605 16.7532 33.398 16.9759 33.7943 17.3722C34.1907 17.7685 34.4133 18.306 34.4133 18.8665V37.8866H38.64V12.5265Z" fill="#E8E8E8"/>
</svg>
